<svg width="50" height="58" viewBox="0 0 50 58" fill="none" xmlns="http://www.w3.org/2000/svg">
<path d="M48.4377 0.875H1.5625C0.915391 0.875 0.390625 1.39977 0.390625 2.04688V55.9534C0.390625 56.6005 0.915391 57.1252 1.5625 57.1252H48.4377C49.0848 57.1252 49.6096 56.6005 49.6096 55.9534V2.04688C49.6096 1.39965 49.0848 0.875 48.4377 0.875ZM47.2659 3.21875V5.5625H21.4845C20.8374 5.5625 20.3126 6.08727 20.3126 6.73438C20.3126 7.3816 20.8374 7.90625 21.4845 7.90625H47.2659V10.25H2.73438V3.21875H47.2659ZM2.73438 54.7815V12.5938H47.2659V54.7815H2.73438Z" fill="#FF3B00"/>
<path d="M43.7502 14.9375H6.25C5.60289 14.9375 5.07812 15.4623 5.07812 16.1094V51.2659C5.07812 51.913 5.60289 52.4377 6.25 52.4377H43.7502C44.3973 52.4377 44.9221 51.913 44.9221 51.2659V16.1094C44.9221 15.4623 44.3973 14.9375 43.7502 14.9375ZM42.5784 50.0939H7.42188V17.2812H42.5784V50.0939Z" fill="#FF3B00"/>
<path d="M8.59375 18.4531H10.9375V20.7969H8.59375V18.4531Z" fill="#FF3B00"/>
<path d="M12.1094 18.4531H37.8907V20.7969H12.1094V18.4531Z" fill="#FF3B00"/>
<path d="M12.1094 46.5781H37.8907V48.9219H12.1094V46.5781Z" fill="#FF3B00"/>
<path d="M5.07812 5.5625H7.42188V7.90625H5.07812V5.5625Z" fill="#FF3B00"/>
<path d="M8.59375 5.5625H10.9375V7.90625H8.59375V5.5625Z" fill="#FF3B00"/>
<path d="M12.1094 5.5625H14.4531V7.90625H12.1094V5.5625Z" fill="#FF3B00"/>
<path d="M8.59375 46.5781H10.9375V48.9219H8.59375V46.5781Z" fill="#FF3B00"/>
<path d="M8.59375 21.9688H10.9375V45.4062H8.59375V21.9688Z" fill="#FF3B00"/>
<path d="M39.0625 18.4531H41.4062V20.7969H39.0625V18.4531Z" fill="#FF3B00"/>
<path d="M39.0625 46.5781H41.4062V48.9219H39.0625V46.5781Z" fill="#FF3B00"/>
<path d="M39.0625 21.9688H41.4062V45.4062H39.0625V21.9688Z" fill="#FF3B00"/>
<path d="M14.4531 33.6875C14.4531 39.5028 19.1847 44.2344 25 44.2344C30.8153 44.2344 35.547 39.5028 35.547 33.6875C35.547 27.8716 30.8153 23.1406 25 23.1406C19.1847 23.1406 14.4531 27.8716 14.4531 33.6875ZM33.2031 33.6875C33.2031 38.2109 29.5233 41.8906 25 41.8906C20.4767 41.8906 16.7969 38.2109 16.7969 33.6875C16.7969 29.1641 20.4768 25.4844 25 25.4844C29.5233 25.4844 33.2031 29.1641 33.2031 33.6875Z" fill="#FF3B00"/>
<path d="M20.8598 33.8295C20.4021 33.3724 19.6605 33.3724 19.2027 33.8295C18.7449 34.2872 18.7449 35.0294 19.2027 35.4872L22.5169 38.8014C22.9746 39.259 23.7167 39.259 24.1746 38.8014L30.8035 32.1723C31.2613 31.7147 31.2613 30.9726 30.8035 30.5152C30.3464 30.0574 29.6042 30.0574 29.1464 30.5152L23.3458 36.3156L20.8598 33.8295Z" fill="#FF3B00"/>
</svg>
