<svg width="58" height="56" viewBox="0 0 58 56" fill="none" xmlns="http://www.w3.org/2000/svg">
<path d="M33.8868 50.192C34.3445 49.7341 34.3445 48.9922 33.8868 48.5347C33.4292 48.077 32.6876 48.077 32.2297 48.5347C30.4478 50.3167 27.5479 50.3167 25.7661 48.5347C25.3083 48.077 24.5668 48.077 24.1089 48.5347C23.6512 48.9919 23.6512 49.7339 24.1089 50.192C26.8046 52.8876 31.1912 52.8876 33.8868 50.192Z" fill="#FF3B00"/>
<path d="M34.7968 51.1051C31.5912 54.3106 26.4019 54.3111 23.1959 51.1051C22.7382 50.6473 21.996 50.6473 21.5382 51.1051C21.081 51.5628 21.081 52.3044 21.5382 52.7622C25.6604 56.8838 32.3317 56.8845 36.4539 52.7622C36.9116 52.3046 36.9116 51.563 36.4539 51.1051C35.9962 50.6472 35.2545 50.6473 34.7968 51.1051Z" fill="#FF3B00"/>
<path d="M55.9532 10.6914H38.375V9.51953C38.375 8.87242 37.8502 8.34766 37.2031 8.34766H36.0313V4.83203C36.0313 4.18492 35.5065 3.66016 34.8594 3.66016H23.1406C22.4935 3.66016 21.9688 4.18492 21.9688 4.83203V8.34766H20.7969C20.1498 8.34766 19.625 8.87242 19.625 9.51953V10.6914H2.04688C1.39977 10.6914 0.875 11.2162 0.875 11.8633V23.582C0.875 24.2291 1.39977 24.7539 2.04688 24.7539H19.625V29.4414C19.625 30.0885 20.1498 30.6133 20.7969 30.6133H21.9688V33.6728C17.7688 36.1081 14.9375 40.6531 14.9375 45.8477C14.9375 46.4948 15.4623 47.0195 16.1094 47.0195H41.8907C42.5379 47.0195 43.0626 46.4948 43.0626 45.8477C43.0626 40.6532 40.2314 36.1083 36.0313 33.6728V30.6133H37.2031C37.8502 30.6133 38.375 30.0885 38.375 29.4414V24.7539H55.9532C56.6004 24.7539 57.1251 24.2291 57.1251 23.582V11.8633C57.1251 11.2162 56.6004 10.6914 55.9532 10.6914ZM54.7814 16.5508H52.4376V13.0352H54.7814V16.5508ZM45.4064 18.8945V22.4102H43.0626V18.8945H45.4064ZM43.0626 16.5508V13.0352H45.4064V16.5508H43.0626ZM47.7501 18.8945H50.0939V22.4102H47.7501V18.8945ZM47.7501 16.5508V13.0352H50.0939V16.5508H47.7501ZM40.7189 13.0352V16.5508H38.375V13.0352H40.7189ZM21.9688 15.3789H36.0313V16.5508H21.9688V15.3789ZM24.3125 6.00391H33.6875V8.34766H24.3125V6.00391ZM21.9688 10.6914H36.0313V13.0352H21.9688C21.9688 12.2152 21.9688 11.5115 21.9688 10.6914ZM19.625 16.5508H17.2813V13.0352H19.625V16.5508ZM10.2499 18.8945V22.4102H7.90613V18.8945H10.2499ZM7.90613 16.5508V13.0352H10.2499V16.5508H7.90613ZM12.5936 18.8945H14.9374V22.4102H12.5936V18.8945ZM12.5936 16.5508V13.0352H14.9374V16.5508H12.5936ZM5.56238 13.0352V16.5508H3.21863V13.0352H5.56238ZM3.21863 18.8945H5.56238V22.4102H3.21863V18.8945ZM17.2813 22.4103V18.8946H19.625V22.4103H17.2813ZM40.6605 44.6759H17.3396C17.9289 38.762 22.9336 34.129 29 34.129C35.066 34.129 40.0705 38.7624 40.6605 44.6759ZM33.6875 32.5893C30.7462 31.5468 27.4207 31.4874 24.3125 32.5893V30.6135H33.6875V32.5893ZM36.0313 28.2696C34.4348 28.2696 23.8336 28.2696 21.9688 28.2696C21.9688 27.1354 21.9688 20.0361 21.9688 18.8945H36.0313V28.2696ZM38.375 18.8945H40.7189V22.4102H38.375V18.8945ZM52.4376 22.4103V18.8946H54.7814V22.4103H52.4376Z" fill="#FF3B00"/>
<path d="M20.7969 41.1602C20.7969 41.8071 21.3216 42.332 21.9688 42.332H36.0312C36.6784 42.332 37.2031 41.8071 37.2031 41.1602C37.2031 40.513 36.6784 39.9883 36.0312 39.9883H21.9688C21.3215 39.9883 20.7969 40.513 20.7969 41.1602Z" fill="#FF3B00"/>
<path d="M11.4219 38.8164C11.4219 36.8778 9.84488 35.3008 7.90625 35.3008C5.96762 35.3008 4.39062 36.8778 4.39062 38.8164C4.39062 40.755 5.96762 42.332 7.90625 42.332C9.84488 42.332 11.4219 40.755 11.4219 38.8164ZM7.90625 39.9883C7.25961 39.9883 6.73438 39.4625 6.73438 38.8164C6.73438 38.1702 7.25961 37.6445 7.90625 37.6445C8.55289 37.6445 9.07812 38.1702 9.07812 38.8164C9.07812 39.4625 8.55289 39.9883 7.90625 39.9883Z" fill="#FF3B00"/>
<path d="M47.75 7.17578C49.6886 7.17578 51.2656 5.5982 51.2656 3.66016C51.2656 1.72152 49.6886 0.144531 47.75 0.144531C45.8114 0.144531 44.2344 1.72152 44.2344 3.66016C44.2344 5.5982 45.8114 7.17578 47.75 7.17578ZM47.75 2.48828C48.3961 2.48828 48.9219 3.0141 48.9219 3.66016C48.9219 4.30621 48.3961 4.83203 47.75 4.83203C47.1039 4.83203 46.5781 4.30621 46.5781 3.66016C46.5781 3.0141 47.1039 2.48828 47.75 2.48828Z" fill="#FF3B00"/>
<path d="M50.6797 30.6133C48.4183 30.6133 46.5781 32.4528 46.5781 34.7148C46.5781 36.9762 48.4183 38.8164 50.6797 38.8164C52.9411 38.8164 54.7812 36.9762 54.7812 34.7148C54.7812 32.4531 52.9411 30.6133 50.6797 30.6133ZM50.6797 36.4727C49.7104 36.4727 48.9219 35.6841 48.9219 34.7148C48.9219 33.7456 49.7104 32.957 50.6797 32.957C51.6489 32.957 52.4375 33.7456 52.4375 34.7148C52.4375 35.6841 51.6489 36.4727 50.6797 36.4727Z" fill="#FF3B00"/>
<path d="M4.39062 6.00391C5.03783 6.00391 5.5625 5.47924 5.5625 4.83203C5.5625 4.18482 5.03783 3.66016 4.39062 3.66016C3.74342 3.66016 3.21875 4.18482 3.21875 4.83203C3.21875 5.47924 3.74342 6.00391 4.39062 6.00391Z" fill="#FF3B00"/>
<path d="M16.1094 7.17578C16.7566 7.17578 17.2812 6.65112 17.2812 6.00391C17.2812 5.3567 16.7566 4.83203 16.1094 4.83203C15.4622 4.83203 14.9375 5.3567 14.9375 6.00391C14.9375 6.65112 15.4622 7.17578 16.1094 7.17578Z" fill="#FF3B00"/>
<path d="M40.7188 6.00391C41.366 6.00391 41.8906 5.47924 41.8906 4.83203C41.8906 4.18482 41.366 3.66016 40.7188 3.66016C40.0715 3.66016 39.5469 4.18482 39.5469 4.83203C39.5469 5.47924 40.0715 6.00391 40.7188 6.00391Z" fill="#FF3B00"/>
<path d="M43.0625 31.7852C43.7097 31.7852 44.2344 31.2605 44.2344 30.6133C44.2344 29.9661 43.7097 29.4414 43.0625 29.4414C42.4153 29.4414 41.8906 29.9661 41.8906 30.6133C41.8906 31.2605 42.4153 31.7852 43.0625 31.7852Z" fill="#FF3B00"/>
<path d="M50.0938 48.1914C50.741 48.1914 51.2656 47.6667 51.2656 47.0195C51.2656 46.3723 50.741 45.8477 50.0938 45.8477C49.4465 45.8477 48.9219 46.3723 48.9219 47.0195C48.9219 47.6667 49.4465 48.1914 50.0938 48.1914Z" fill="#FF3B00"/>
<path d="M11.4219 50.5352C12.0691 50.5352 12.5938 50.0105 12.5938 49.3633C12.5938 48.7161 12.0691 48.1914 11.4219 48.1914C10.7747 48.1914 10.25 48.7161 10.25 49.3633C10.25 50.0105 10.7747 50.5352 11.4219 50.5352Z" fill="#FF3B00"/>
<path d="M16.1094 32.957C16.7566 32.957 17.2812 32.4324 17.2812 31.7852C17.2812 31.1379 16.7566 30.6133 16.1094 30.6133C15.4622 30.6133 14.9375 31.1379 14.9375 31.7852C14.9375 32.4324 15.4622 32.957 16.1094 32.957Z" fill="#FF3B00"/>
<path d="M4.39062 29.4414C5.03783 29.4414 5.5625 28.9167 5.5625 28.2695C5.5625 27.6223 5.03783 27.0977 4.39062 27.0977C3.74342 27.0977 3.21875 27.6223 3.21875 28.2695C3.21875 28.9167 3.74342 29.4414 4.39062 29.4414Z" fill="#FF3B00"/>
<path d="M24.3125 22.4102H26.6562V24.7539H24.3125V22.4102Z" fill="#FF3B00"/>
<path d="M27.8281 22.4102H30.1719V24.7539H27.8281V22.4102Z" fill="#FF3B00"/>
<path d="M31.3438 22.4102H33.6875V24.7539H31.3438V22.4102Z" fill="#FF3B00"/>
</svg>
