<svg width="66" height="66" viewBox="0 0 66 66" fill="none" xmlns="http://www.w3.org/2000/svg">
<path opacity="0.1" fill-rule="evenodd" clip-rule="evenodd" d="M64.7423 33.0001C64.7423 24.2357 61.1899 16.3011 55.4464 10.5576C49.703 4.81417 41.7684 1.26172 33.004 1.26172C24.2396 1.26172 16.305 4.81417 10.5615 10.5576C4.81808 16.301 1.26562 24.2356 1.26562 33.0001C1.26562 41.7645 4.81808 49.6991 10.5615 55.4425C16.3049 61.186 24.2395 64.7384 33.004 64.7384C41.7684 64.7384 49.703 61.186 55.4464 55.4425C61.1899 49.6991 64.7423 41.7645 64.7423 33.0001Z" fill="white"/>
<path d="M19.7188 47.4531H21.2812V49.0157H19.7188V47.4531Z" fill="white"/>
<path d="M22.0625 45.1094H23.625V46.6719H22.0625V45.1094Z" fill="white"/>
<path d="M24.4062 45.1094H25.9688V46.6719H24.4062V45.1094Z" fill="white"/>
<path d="M26.75 45.1094H28.3125V46.6719H26.75V45.1094Z" fill="white"/>
<path d="M22.8438 47.4531H24.4062V49.0157H22.8438V47.4531Z" fill="white"/>
<path d="M31.4375 45.1094H33V46.6719H31.4375V45.1094Z" fill="white"/>
<path d="M29.0938 47.4531H30.6562V49.0157H29.0938V47.4531Z" fill="white"/>
<path d="M31.4375 47.4531H33V49.0157H31.4375V47.4531Z" fill="white"/>
<path d="M33.7812 45.1094H35.3438V46.6719H33.7812V45.1094Z" fill="white"/>
<path d="M33.7812 47.4531H35.3438V49.0157H33.7812V47.4531Z" fill="white"/>
<path d="M36.125 45.1094H37.6875V46.6719H36.125V45.1094Z" fill="white"/>
<path d="M38.4688 45.1094H40.0313V46.6719H38.4688V45.1094Z" fill="white"/>
<path d="M36.125 47.4531H37.6875V49.0157H36.125V47.4531Z" fill="white"/>
<path d="M41.5938 45.8906C41.5938 46.3221 41.9436 46.6719 42.375 46.6719H46.2812C46.7127 46.6719 47.0625 46.3221 47.0625 45.8906C47.0625 45.4593 46.7127 45.1094 46.2812 45.1094H42.375C41.9436 45.1094 41.5938 45.4593 41.5938 45.8906Z" fill="white"/>
<path d="M46.2812 47.4531H42.375C41.9436 47.4531 41.5938 47.803 41.5938 48.2345C41.5938 48.6659 41.9436 49.0157 42.375 49.0157H46.2812C46.7127 49.0157 47.0625 48.6659 47.0625 48.2345C47.0625 47.803 46.7127 47.4531 46.2812 47.4531Z" fill="white"/>
<path d="M19.7188 38.0781H21.2812V39.6406H19.7188V38.0781Z" fill="white"/>
<path d="M22.0625 35.7344H23.625V37.2969H22.0625V35.7344Z" fill="white"/>
<path d="M24.4062 35.7344H25.9688V37.2969H24.4062V35.7344Z" fill="white"/>
<path d="M26.75 35.7344H28.3125V37.2969H26.75V35.7344Z" fill="white"/>
<path d="M26.75 38.0781H28.3125V39.6406H26.75V38.0781Z" fill="white"/>
<path d="M29.0938 35.7344H30.6562V37.2969H29.0938V35.7344Z" fill="white"/>
<path d="M29.0938 38.0781H30.6562V39.6406H29.0938V38.0781Z" fill="white"/>
<path d="M31.4375 38.0781H33V39.6406H31.4375V38.0781Z" fill="white"/>
<path d="M33.7812 35.7344H35.3438V37.2969H33.7812V35.7344Z" fill="white"/>
<path d="M33.7812 38.0781H35.3438V39.6406H33.7812V38.0781Z" fill="white"/>
<path d="M36.125 35.7344H37.6875V37.2969H36.125V35.7344Z" fill="white"/>
<path d="M38.4688 35.7344H40.0313V37.2969H38.4688V35.7344Z" fill="white"/>
<path d="M38.4688 38.0781H40.0313V39.6406H38.4688V38.0781Z" fill="white"/>
<path d="M41.5938 36.5156C41.5938 36.947 41.9436 37.2969 42.375 37.2969H46.2812C46.7127 37.2969 47.0625 36.947 47.0625 36.5156C47.0625 36.0843 46.7127 35.7344 46.2812 35.7344H42.375C41.9436 35.7344 41.5938 36.0843 41.5938 36.5156Z" fill="white"/>
<path d="M46.2812 38.0781H42.375C41.9436 38.0781 41.5938 38.428 41.5938 38.8594C41.5938 39.2907 41.9436 39.6406 42.375 39.6406H46.2812C46.7127 39.6406 47.0625 39.2907 47.0625 38.8594C47.0625 38.428 46.7127 38.0781 46.2812 38.0781Z" fill="white"/>
<path d="M38.4688 26.3594H40.0313V27.9219H38.4688V26.3594Z" fill="white"/>
<path d="M36.125 28.7031H37.6875V30.2656H36.125V28.7031Z" fill="white"/>
<path d="M33.7812 28.7031H35.3438V30.2656H33.7812V28.7031Z" fill="white"/>
<path d="M31.4375 28.7031H33V30.2656H31.4375V28.7031Z" fill="white"/>
<path d="M31.4375 26.3594H33V27.9219H31.4375V26.3594Z" fill="white"/>
<path d="M29.0938 28.7031H30.6562V30.2656H29.0938V28.7031Z" fill="white"/>
<path d="M29.0938 26.3594H30.6562V27.9219H29.0938V26.3594Z" fill="white"/>
<path d="M26.75 26.3594H28.3125V27.9219H26.75V26.3594Z" fill="white"/>
<path d="M24.4062 28.7031H25.9688V30.2656H24.4062V28.7031Z" fill="white"/>
<path d="M24.4062 26.3594H25.9688V27.9219H24.4062V26.3594Z" fill="white"/>
<path d="M22.0625 28.7031H23.625V30.2656H22.0625V28.7031Z" fill="white"/>
<path d="M19.7188 28.7031H21.2812V30.2656H19.7188V28.7031Z" fill="white"/>
<path d="M19.7188 26.3594H21.2812V27.9219H19.7188V26.3594Z" fill="white"/>
<path d="M41.5938 27.1406C41.5938 27.572 41.9436 27.9219 42.375 27.9219H46.2812C46.7127 27.9219 47.0625 27.572 47.0625 27.1406C47.0625 26.7092 46.7127 26.3594 46.2812 26.3594H42.375C41.9436 26.3594 41.5938 26.7092 41.5938 27.1406Z" fill="white"/>
<path d="M46.2812 28.7031H42.375C41.9436 28.7031 41.5938 29.053 41.5938 29.4844C41.5938 29.9158 41.9436 30.2656 42.375 30.2656H46.2812C46.7127 30.2656 47.0625 29.9158 47.0625 29.4844C47.0625 29.053 46.7127 28.7031 46.2812 28.7031Z" fill="white"/>
<path d="M48.6252 23.2344C49.0566 23.2344 49.4064 22.8845 49.4064 22.4531V15.4219C49.4064 14.9905 49.0566 14.6406 48.6252 14.6406H17.375C16.9436 14.6406 16.5938 14.9905 16.5938 15.4219V22.4531C16.5938 22.8845 16.9436 23.2344 17.375 23.2344H20.5V24.0156H17.375C16.9436 24.0156 16.5938 24.3655 16.5938 24.7969V31.8281C16.5938 32.2595 16.9436 32.6094 17.375 32.6094H20.5V33.3906H17.375C16.9436 33.3906 16.5938 33.7405 16.5938 34.1719V41.2031C16.5938 41.6345 16.9436 41.9844 17.375 41.9844H20.5V42.7656H17.375C16.9436 42.7656 16.5938 43.1155 16.5938 43.5469V50.5782C16.5938 51.0096 16.9436 51.3595 17.375 51.3595H48.6252C49.0566 51.3595 49.4064 51.0096 49.4064 50.5782V43.547C49.4064 43.1156 49.0566 42.7657 48.6252 42.7657H45.5002V41.9845H48.6252C49.0566 41.9845 49.4064 41.6345 49.4064 41.2032V34.172C49.4064 33.7406 49.0566 33.3907 48.6252 33.3907H45.5002V32.6095H48.6252C49.0566 32.6095 49.4064 32.2596 49.4064 31.8282V24.797C49.4064 24.3655 49.0566 24.0157 48.6252 24.0157H45.5002V23.2345L48.6252 23.2344ZM18.1562 16.2031H47.8439V21.6719H18.1562V16.2031ZM47.8439 49.797H18.1562V44.3282H47.8439V49.797ZM43.9377 42.7657H22.0625V41.9845H43.9377V42.7657ZM47.8439 40.422H18.1562V34.9532H47.8439V40.422ZM43.9377 33.3907H22.0625V32.6095H43.9377V33.3907ZM47.8439 31.047H18.1562V25.5782H47.8439V31.047ZM43.9377 24.0156H22.0625V23.2344H43.9377V24.0156Z" fill="white"/>
<path d="M19.7188 19.3281H21.2812V20.8906H19.7188V19.3281Z" fill="white"/>
<path d="M22.0625 16.9844H23.625V18.5469H22.0625V16.9844Z" fill="white"/>
<path d="M24.4062 16.9844H25.9688V18.5469H24.4062V16.9844Z" fill="white"/>
<path d="M26.75 16.9844H28.3125V18.5469H26.75V16.9844Z" fill="white"/>
<path d="M26.75 19.3281H28.3125V20.8906H26.75V19.3281Z" fill="white"/>
<path d="M29.0938 16.9844H30.6562V18.5469H29.0938V16.9844Z" fill="white"/>
<path d="M29.0938 19.3281H30.6562V20.8906H29.0938V19.3281Z" fill="white"/>
<path d="M31.4375 19.3281H33V20.8906H31.4375V19.3281Z" fill="white"/>
<path d="M33.7812 16.9844H35.3438V18.5469H33.7812V16.9844Z" fill="white"/>
<path d="M33.7812 19.3281H35.3438V20.8906H33.7812V19.3281Z" fill="white"/>
<path d="M36.125 16.9844H37.6875V18.5469H36.125V16.9844Z" fill="white"/>
<path d="M38.4688 16.9844H40.0313V18.5469H38.4688V16.9844Z" fill="white"/>
<path d="M38.4688 19.3281H40.0313V20.8906H38.4688V19.3281Z" fill="white"/>
<path d="M42.375 18.5469H46.2812C46.7127 18.5469 47.0625 18.197 47.0625 17.7656C47.0625 17.3342 46.7127 16.9844 46.2812 16.9844H42.375C41.9436 16.9844 41.5938 17.3342 41.5938 17.7656C41.5938 18.197 41.9436 18.5469 42.375 18.5469Z" fill="white"/>
<path d="M42.375 20.8906H46.2812C46.7127 20.8906 47.0625 20.5408 47.0625 20.1094C47.0625 19.678 46.7127 19.3281 46.2812 19.3281H42.375C41.9436 19.3281 41.5938 19.678 41.5938 20.1094C41.5938 20.5408 41.9436 20.8906 42.375 20.8906Z" fill="white"/>
</svg>
