<svg width="179" height="48" viewBox="0 0 179 48" fill="none" xmlns="http://www.w3.org/2000/svg">
<path d="M25.8016 35.7883C22.3016 34.4883 18.7016 34.2883 15.4016 35.1883C13.1016 35.7883 10.9016 36.9883 8.90158 38.4883L7.50156 39.6883L7.10156 40.0883L8.00156 40.8883C8.10156 40.8883 8.10157 40.9883 8.20157 41.0883C8.40157 41.2883 8.60158 41.3883 8.90158 41.5883L9.50156 41.9883L10.1016 41.4883C10.2016 41.3883 10.4016 41.1883 10.6016 41.0883C12.4016 39.5883 14.4016 38.5883 16.5016 38.0883C19.2016 37.3883 22.1016 37.4883 25.0016 38.5883C27.4016 39.4883 32.3016 40.5883 38.2016 38.0883L38.4016 37.9883L38.7016 37.6883C38.7016 37.5883 38.8016 37.5883 38.9016 37.4883C39.4016 36.8883 39.9016 36.2883 40.3016 35.5883L42.3016 32.4883L39.1016 34.2883C34.4016 36.8883 30.1016 37.3883 25.8016 35.7883Z" fill="white"/>
<path d="M12.1 24.9891C14.8 24.2891 17.7 24.3891 20.6 25.4891C23.8 26.6891 32 28.3891 41.2 20.0891L42.7 18.5891L42.8 18.4891L43.2 18.0891L43 17.5891C42.9 17.1891 42.7 16.6891 42.5 16.1891L42 14.7891L41 15.7891C40.9 15.9891 40.7 16.0891 40.5 16.2891C36.1 20.7891 29.3 25.3891 21.5 22.5891C18 21.2891 14.4 21.0891 11.1 21.9891C7.90001 22.8891 5.1 24.5891 2.5 26.9891V26.8891L1 28.4891C1 28.5891 0.900018 28.5891 0.800018 28.6891L0.5 28.9891L0.600006 29.3891C0.700006 29.8891 0.9 30.3891 1 30.8891L1.60001 32.4891L2.60001 31.1891C2.70001 30.9891 2.9 30.8891 3 30.6891C5.1 28.7891 8.00001 26.0891 12.1 24.9891Z" fill="white"/>
<path d="M2.40002 23.1891C4.70002 20.7891 7.30001 19.2891 10.1 18.4891C12.8 17.7891 15.7 17.8891 18.6 18.9891C27.6 22.2891 35.4 16.8891 38.8 13.9891L40.1 12.6891L40.6 12.2891L40.2 11.6891C39.9 11.3891 39.7 10.9891 39.4 10.5891L38.8 9.78906L38.1 10.4891C38 10.5891 37.8 10.7891 37.7 10.8891C33.5 14.8891 27 18.9891 19.6 16.1891C16.1 14.8891 12.5 14.6891 9.20001 15.5891C7.10001 16.1891 5.10001 17.1891 3.10001 18.4891L1 20.1891C0.8 20.3891 0.7 20.4891 0.5 20.6891L0.300018 20.8891V21.1891C0.200018 21.8891 0.200006 22.5891 0.100006 23.1891L0 25.6891L1.70001 23.8891C1.90001 23.6891 2.10002 23.3891 2.40002 23.1891Z" fill="white"/>
<path d="M28.6984 42.589L28.4984 43.189L28.6984 42.589C28.3984 42.489 28.1984 42.389 27.8984 42.289C24.3984 40.989 20.7984 40.789 17.4984 41.689C16.7984 41.889 16.0984 42.089 15.3984 42.389L12.9984 43.489L12.3984 43.789L14.3984 44.489C14.9984 44.689 15.5984 44.889 16.1984 45.089L16.4984 45.189L16.7984 45.089C17.0984 44.989 17.3984 44.789 17.6984 44.789C17.8984 44.789 18.0984 44.689 18.2984 44.589C20.6984 43.989 23.2984 43.989 26.0984 44.889C26.3984 44.989 26.5984 45.089 26.8984 45.189L27.3984 45.389L27.6984 45.289C28.3984 45.089 29.1984 44.889 29.7984 44.589L32.5984 43.589L29.6984 42.889C29.3984 42.789 28.9984 42.689 28.6984 42.589Z" fill="white"/>
<path d="M43.9969 21.8867L42.4969 23.3867C42.2969 23.5867 42.0969 23.7867 41.8969 23.9867C37.7969 27.8867 31.1969 32.0867 23.7969 29.2867C20.2969 27.9867 16.6969 27.7867 13.3969 28.6867C10.2969 29.5867 7.49686 31.1867 4.99686 33.5867L3.69687 34.9867L3.29688 35.4867L3.69687 36.0867C3.99687 36.4867 4.19688 36.7867 4.39688 37.1867L4.99686 38.0867L5.69687 37.1867C5.79687 37.0867 5.99686 36.8867 6.09686 36.7867C8.49686 34.1867 11.0969 32.5867 14.0969 31.7867C16.7969 31.0867 19.6969 31.1867 22.5969 32.2867C25.0969 33.1867 27.6969 33.4867 30.2969 33.1867C34.8969 32.6867 39.4969 30.0867 42.8969 27.1867C43.0969 26.9867 43.2969 26.8867 43.4969 26.6867L43.7969 26.3867V26.0867C43.7969 25.4867 43.8969 24.7867 43.8969 24.1867L43.9969 21.8867Z" fill="white"/>
<path d="M6.00311 12.6859L5.70312 12.0859L6.00311 12.6859C6.60311 12.3859 7.30314 12.1859 7.90314 11.9859C10.6031 11.2859 13.5031 11.3859 16.4031 12.4859C18.3031 13.1859 20.2031 13.4859 22.3031 13.4859C26.5031 13.4859 30.7031 11.9859 34.6031 9.08594L36.1031 7.88593L36.6031 7.48593L35.7031 6.78592C35.4031 6.48592 35.0031 6.18593 34.6031 5.98593L34.0031 5.58594L33.5031 5.98593C33.3031 6.08593 33.2031 6.28593 33.0031 6.38593C27.7031 10.3859 22.4031 11.4859 17.4031 9.58594C13.8031 8.28594 10.2031 7.98594 6.60312 9.08594C6.30312 9.18594 6.00312 9.28593 5.60312 9.38593L5.40314 9.48593L5.10312 9.78592C5.10312 9.88592 5.00314 9.88593 4.90314 9.98593C4.50314 10.5859 4.00312 11.0859 3.60312 11.6859L1.70312 14.5859L4.80313 12.9859C5.30313 12.9859 5.70311 12.7859 6.00311 12.6859Z" fill="white"/>
<path d="M14.2 5.88748L14.5 5.98749C15.8 6.48749 17.8 6.98749 20.3 6.98749C22.9 6.98749 25.4 6.38748 27.9 5.38748L31 3.88748L28.9 3.1875C28.3 2.9875 27.7 2.7875 27 2.6875H26.7L26.4 2.78748C26.1 2.88748 25.8 3.0875 25.5 3.1875C22.5 4.2875 19.5 4.4875 16.6 3.6875C16.3 3.5875 16 3.48748 15.7 3.38748L15.4 3.28748L15.1 3.38748C14.5 3.58748 13.9 3.78749 13.3 4.08749L11 5.08749L13.4 5.78748C13.6 5.68748 13.9 5.78748 14.2 5.88748Z" fill="white"/>
<path d="M61.2777 33.9098H56.6641L63.6939 13.5462H69.2422L76.2621 33.9098H71.6484L66.5476 18.1996H66.3885L61.2777 33.9098ZM60.9893 25.9055H71.8871V29.2663H60.9893V25.9055Z" fill="white"/>
<path d="M82.8693 13.5462V33.9098H78.6335V13.5462H82.8693Z" fill="white"/>
<path d="M94.386 18.6371V21.8189H85.1886V18.6371H94.386ZM87.2766 14.978H91.5124V29.2166C91.5124 29.6077 91.5721 29.9126 91.6914 30.1314C91.8107 30.3435 91.9764 30.4927 92.1886 30.5788C92.4073 30.665 92.6592 30.7081 92.9442 30.7081C93.1431 30.7081 93.342 30.6915 93.5408 30.6584C93.7397 30.6186 93.8922 30.5888 93.9982 30.5689L94.6644 33.7209C94.4523 33.7872 94.154 33.8634 93.7695 33.9496C93.3851 34.0424 92.9177 34.0987 92.3675 34.1186C91.3467 34.1584 90.4518 34.0225 89.6829 33.7109C88.9206 33.3994 88.3273 32.9155 87.9031 32.2592C87.4788 31.603 87.27 30.7744 87.2766 29.7734V14.978Z" fill="white"/>
<path d="M102.726 32.8061V18.7266H106.286V32.8061H102.726ZM97.4659 27.5462V23.9865H111.545V27.5462H97.4659Z" fill="white"/>
<path d="M126.838 19.4027C126.759 18.6006 126.417 17.9775 125.814 17.5334C125.211 17.0893 124.392 16.8672 123.358 16.8672C122.655 16.8672 122.062 16.9666 121.578 17.1655C121.094 17.3577 120.723 17.6262 120.464 17.9709C120.213 18.3156 120.087 18.7067 120.087 19.1442C120.073 19.5088 120.15 19.8269 120.315 20.0987C120.488 20.3705 120.723 20.6058 121.021 20.8047C121.32 20.9969 121.664 21.166 122.055 21.3118C122.446 21.451 122.864 21.5703 123.308 21.6697L125.138 22.1072C126.026 22.3061 126.841 22.5713 127.584 22.9027C128.326 23.2341 128.969 23.6418 129.513 24.1257C130.056 24.6096 130.477 25.1797 130.776 25.8359C131.08 26.4922 131.236 27.2446 131.243 28.093C131.236 29.3393 130.918 30.4197 130.288 31.3345C129.665 32.2427 128.764 32.9486 127.584 33.4524C126.411 33.9496 124.995 34.1982 123.338 34.1982C121.694 34.1982 120.262 33.9463 119.043 33.4425C117.83 32.9387 116.882 32.1929 116.199 31.2053C115.523 30.2109 115.168 28.9813 115.135 27.5163H119.301C119.348 28.1991 119.543 28.7692 119.888 29.2266C120.239 29.6773 120.706 30.0187 121.29 30.2507C121.88 30.4761 122.546 30.5888 123.288 30.5888C124.018 30.5888 124.651 30.4827 125.188 30.2706C125.731 30.0585 126.152 29.7635 126.45 29.3857C126.749 29.0078 126.898 28.5736 126.898 28.0831C126.898 27.6257 126.762 27.2412 126.49 26.9297C126.225 26.6181 125.834 26.353 125.317 26.1342C124.806 25.9155 124.18 25.7166 123.438 25.5376L121.22 24.9808C119.503 24.5632 118.148 23.9103 117.153 23.022C116.159 22.1338 115.665 20.9373 115.672 19.4325C115.665 18.1996 115.993 17.1224 116.656 16.201C117.326 15.2796 118.244 14.5604 119.411 14.0433C120.577 13.5263 121.903 13.2678 123.388 13.2678C124.899 13.2678 126.218 13.5263 127.345 14.0433C128.479 14.5604 129.36 15.2796 129.99 16.201C130.62 17.1224 130.945 18.1896 130.964 19.4027H126.838Z" fill="white"/>
<path d="M138.295 25.0803V33.9098H134.059V13.5462H138.176V21.3317H138.355C138.699 20.4302 139.256 19.7242 140.025 19.2138C140.794 18.6967 141.759 18.4382 142.919 18.4382C143.979 18.4382 144.904 18.6702 145.693 19.1342C146.488 19.5916 147.105 20.2512 147.542 21.1129C147.986 21.968 148.205 22.9922 148.199 24.1854V33.9098H143.963V24.9411C143.969 23.9998 143.731 23.2673 143.247 22.7436C142.77 22.2199 142.1 21.9581 141.238 21.9581C140.662 21.9581 140.151 22.0807 139.707 22.326C139.27 22.5713 138.925 22.9292 138.673 23.3999C138.428 23.8639 138.302 24.424 138.295 25.0803Z" fill="white"/>
<path d="M151.532 33.9098V18.6371H155.768V33.9098H151.532ZM153.66 16.6683C153.03 16.6683 152.49 16.4595 152.039 16.0419C151.595 15.6177 151.373 15.1106 151.373 14.5206C151.373 13.9373 151.595 13.4368 152.039 13.0192C152.49 12.5949 153.03 12.3828 153.66 12.3828C154.29 12.3828 154.826 12.5949 155.271 13.0192C155.721 13.4368 155.947 13.9373 155.947 14.5206C155.947 15.1106 155.721 15.6177 155.271 16.0419C154.826 16.4595 154.29 16.6683 153.66 16.6683Z" fill="white"/>
<path d="M168.888 18.6371V21.8189H157.948V18.6371H168.888ZM160.105 33.9098V17.5334C160.105 16.4264 160.321 15.5083 160.752 14.7791C161.189 14.05 161.786 13.5031 162.542 13.1385C163.297 12.7739 164.156 12.5916 165.117 12.5916C165.766 12.5916 166.36 12.6413 166.897 12.7408C167.44 12.8402 167.845 12.9297 168.11 13.0092L167.354 16.1911C167.188 16.138 166.983 16.0883 166.738 16.0419C166.499 15.9955 166.254 15.9723 166.002 15.9723C165.379 15.9723 164.944 16.1181 164.699 16.4098C164.454 16.6948 164.331 17.0959 164.331 17.6129V33.9098H160.105Z" fill="white"/>
<path d="M178.085 18.6371V21.8189H168.888V18.6371H178.085ZM170.976 14.978H175.212V29.2166C175.212 29.6077 175.271 29.9126 175.391 30.1314C175.51 30.3435 175.676 30.4927 175.888 30.5788C176.107 30.665 176.358 30.7081 176.643 30.7081C176.842 30.7081 177.041 30.6915 177.24 30.6584C177.439 30.6186 177.591 30.5888 177.697 30.5689L178.364 33.7209C178.152 33.7872 177.853 33.8634 177.469 33.9496C177.084 34.0424 176.617 34.0987 176.067 34.1186C175.046 34.1584 174.151 34.0225 173.382 33.7109C172.62 33.3994 172.027 32.9155 171.602 32.2592C171.178 31.603 170.969 30.7744 170.976 29.7734V14.978Z" fill="white"/>
</svg>
