<svg width="160" height="48" viewBox="0 0 160 48" fill="none" xmlns="http://www.w3.org/2000/svg">
<path opacity="0.8" d="M22 2C9.84969 2 0 11.8497 0 24C0 36.1503 9.84969 46 22 46C32.901 46 41.9502 38.0716 43.6958 27.6667H43.5379C41.9098 33.9925 36.1674 38.6667 29.3333 38.6667C21.2332 38.6667 14.6667 32.1002 14.6667 24C14.6667 15.8998 21.2332 9.33333 29.3333 9.33333C36.1674 9.33333 41.9098 14.0075 43.5379 20.3333H43.6958C41.9502 9.92838 32.901 2 22 2Z" fill="white"/>
<path d="M0 24C0 11.8497 9.84974 2 22 2C32.901 2 41.9502 9.92838 43.6958 20.3333H28.8713C27.2431 14.0075 21.5007 9.33333 14.6667 9.33333C6.56649 9.33333 0 15.8998 0 24Z" fill="white"/>
<path d="M0 24C0 36.1503 9.84974 46 22 46C32.901 46 41.9502 38.0716 43.6958 27.6667H28.8713C27.2431 33.9925 21.5007 38.6667 14.6667 38.6667C6.56649 38.6667 0 32.1002 0 24Z" fill="white"/>
<path d="M75.4396 20.5085C74.8132 15.9844 71.3331 13.3594 66.8189 13.3594C61.4993 13.3594 57.4922 17.2372 57.4922 23.8196C57.4922 30.392 61.4496 34.2798 66.8189 34.2798C71.6612 34.2798 74.8729 31.1477 75.4396 27.2599L71.7209 27.2401C71.2535 29.6264 69.3047 30.9688 66.8686 30.9688C63.5675 30.9688 61.201 28.4929 61.201 23.8196C61.201 19.2259 63.5476 16.6705 66.8785 16.6705C69.3544 16.6705 71.2933 18.0724 71.7209 20.5085H75.4396Z" fill="white"/>
<path d="M83.0536 34.3097C85.4499 34.3097 86.8817 33.1861 87.538 31.9034H87.6573V34.0014H91.1175V23.7798C91.1175 19.7429 87.8263 18.5298 84.913 18.5298C81.7013 18.5298 79.2354 19.9616 78.44 22.7457L81.8008 23.223C82.1587 22.179 83.1729 21.2841 84.9329 21.2841C86.6033 21.2841 87.5181 22.1392 87.5181 23.6406V23.7003C87.5181 24.7344 86.4343 24.7841 83.7397 25.0724C80.7766 25.3906 77.9428 26.2756 77.9428 29.7159C77.9428 32.7188 80.1403 34.3097 83.0536 34.3097ZM83.9883 31.6648C82.4869 31.6648 81.413 30.9787 81.413 29.6563C81.413 28.2741 82.6161 27.6974 84.2269 27.4688C85.1715 27.3395 87.0607 27.1009 87.528 26.723V28.5227C87.528 30.223 86.1559 31.6648 83.9883 31.6648Z" fill="white"/>
<path d="M102.363 18.7287H99.3505V15.0696H95.7511V18.7287H93.5834V21.5128H95.7511V30.0043C95.7312 32.8778 97.8192 34.2898 100.524 34.2102C101.548 34.1804 102.254 33.9815 102.642 33.8523L102.035 31.0384C101.836 31.0881 101.429 31.1776 100.981 31.1776C100.076 31.1776 99.3505 30.8594 99.3505 29.4077V21.5128H102.363V18.7287Z" fill="white"/>
<path d="M109.768 34.3097C112.165 34.3097 113.597 33.1861 114.253 31.9034H114.372V34.0014H117.832V23.7798C117.832 19.7429 114.541 18.5298 111.628 18.5298C108.416 18.5298 105.95 19.9616 105.155 22.7457L108.516 23.223C108.874 22.179 109.888 21.2841 111.648 21.2841C113.318 21.2841 114.233 22.1392 114.233 23.6406V23.7003C114.233 24.7344 113.149 24.7841 110.455 25.0724C107.491 25.3906 104.658 26.2756 104.658 29.7159C104.658 32.7188 106.855 34.3097 109.768 34.3097ZM110.703 31.6648C109.202 31.6648 108.128 30.9787 108.128 29.6563C108.128 28.2741 109.331 27.6974 110.942 27.4688C111.886 27.3395 113.776 27.1009 114.243 26.723V28.5227C114.243 30.223 112.871 31.6648 110.703 31.6648Z" fill="white"/>
<path d="M125.051 13.6378H121.452V34.0014H125.051V13.6378Z" fill="white"/>
<path d="M135.414 34.2997C139.889 34.2997 142.733 31.1477 142.733 26.4247C142.733 21.6918 139.889 18.5298 135.414 18.5298C130.94 18.5298 128.096 21.6918 128.096 26.4247C128.096 31.1477 130.94 34.2997 135.414 34.2997ZM135.434 31.4162C132.958 31.4162 131.745 29.2088 131.745 26.4148C131.745 23.6207 132.958 21.3835 135.434 21.3835C137.87 21.3835 139.083 23.6207 139.083 26.4148C139.083 29.2088 137.87 31.4162 135.434 31.4162Z" fill="white"/>
<path d="M152.43 40.0469C156.556 40.0469 159.599 38.1577 159.599 34.25V18.7287H156.049V21.2543H155.85C155.303 20.1506 154.16 18.5298 151.465 18.5298C147.935 18.5298 145.161 21.294 145.161 26.3153C145.161 31.2969 147.935 33.7827 151.455 33.7827C154.07 33.7827 155.293 32.3807 155.85 31.2571H156.029V34.1506C156.029 36.3977 154.538 37.3224 152.489 37.3224C150.322 37.3224 149.367 36.2983 148.93 35.4034L145.688 36.1889C146.344 38.3267 148.542 40.0469 152.43 40.0469ZM152.459 30.9588C150.083 30.9588 148.83 29.1094 148.83 26.2955C148.83 23.5213 150.063 21.483 152.459 21.483C154.776 21.483 156.049 23.402 156.049 26.2955C156.049 29.2088 154.756 30.9588 152.459 30.9588Z" fill="white"/>
</svg>
