<svg width="170" height="48" viewBox="0 0 170 48" fill="none" xmlns="http://www.w3.org/2000/svg">
<path fill-rule="evenodd" clip-rule="evenodd" d="M22 46C34.1503 46 44 36.1503 44 24C44 11.8497 34.1503 2 22 2C9.84971 2 0 11.8497 0 24C0 36.1503 9.84971 46 22 46ZM28.8632 12.2485C29.1973 11.0619 28.0457 10.3601 26.994 11.1094L12.3124 21.5685C11.1718 22.3811 11.3512 24 12.5819 24H16.448V23.9701H23.9828L17.8433 26.1363L15.1368 35.7515C14.8027 36.9382 15.9542 37.6399 17.006 36.8906L31.6876 26.4315C32.8282 25.619 32.6487 24 31.4181 24H25.5553L28.8632 12.2485Z" fill="white"/>
<path d="M55.3828 33.9083V30.4283H58.1428V16.3883H55.3828V12.9083H66.1828C67.4628 12.9083 68.5728 13.1283 69.5128 13.5683C70.4728 13.9883 71.2128 14.5983 71.7328 15.3983C72.2728 16.1783 72.5428 17.1183 72.5428 18.2183V18.5183C72.5428 19.4783 72.3628 20.2683 72.0028 20.8883C71.6428 21.4883 71.2128 21.9583 70.7128 22.2983C70.2328 22.6183 69.7728 22.8483 69.3328 22.9883V23.5283C69.7728 23.6483 70.2528 23.8783 70.7728 24.2183C71.2928 24.5383 71.7328 25.0083 72.0928 25.6283C72.4728 26.2483 72.6628 27.0583 72.6628 28.0583V28.3583C72.6628 29.5183 72.3928 30.5183 71.8528 31.3583C71.3128 32.1783 70.5628 32.8083 69.6028 33.2483C68.6628 33.6883 67.5628 33.9083 66.3028 33.9083H55.3828ZM62.1028 30.3083H65.8228C66.6828 30.3083 67.3728 30.0983 67.8928 29.6783C68.4328 29.2583 68.7028 28.6583 68.7028 27.8783V27.5783C68.7028 26.7983 68.4428 26.1983 67.9228 25.7783C67.4028 25.3583 66.7028 25.1483 65.8228 25.1483H62.1028V30.3083ZM62.1028 21.5483H65.7628C66.5828 21.5483 67.2528 21.3383 67.7728 20.9183C68.3128 20.4983 68.5828 19.9183 68.5828 19.1783V18.8783C68.5828 18.1183 68.3228 17.5383 67.8028 17.1383C67.2828 16.7183 66.6028 16.5083 65.7628 16.5083H62.1028V21.5483Z" fill="white"/>
<path d="M81.6047 34.3283C80.1247 34.3283 78.7947 34.0283 77.6147 33.4283C76.4347 32.8283 75.5047 31.9583 74.8247 30.8183C74.1447 29.6783 73.8047 28.3083 73.8047 26.7083V26.2283C73.8047 24.6283 74.1447 23.2583 74.8247 22.1183C75.5047 20.9783 76.4347 20.1083 77.6147 19.5083C78.7947 18.9083 80.1247 18.6083 81.6047 18.6083C83.0847 18.6083 84.4147 18.9083 85.5947 19.5083C86.7747 20.1083 87.7047 20.9783 88.3847 22.1183C89.0647 23.2583 89.4047 24.6283 89.4047 26.2283V26.7083C89.4047 28.3083 89.0647 29.6783 88.3847 30.8183C87.7047 31.9583 86.7747 32.8283 85.5947 33.4283C84.4147 34.0283 83.0847 34.3283 81.6047 34.3283ZM81.6047 30.9683C82.7647 30.9683 83.7247 30.5983 84.4847 29.8583C85.2447 29.0983 85.6247 28.0183 85.6247 26.6183V26.3183C85.6247 24.9183 85.2447 23.8483 84.4847 23.1083C83.7447 22.3483 82.7847 21.9683 81.6047 21.9683C80.4447 21.9683 79.4847 22.3483 78.7247 23.1083C77.9647 23.8483 77.5847 24.9183 77.5847 26.3183V26.6183C77.5847 28.0183 77.9647 29.0983 78.7247 29.8583C79.4847 30.5983 80.4447 30.9683 81.6047 30.9683Z" fill="white"/>
<path d="M91.3938 33.9083V12.9083H95.1738V33.9083H91.3938Z" fill="white"/>
<path d="M103.563 33.9083C102.583 33.9083 101.783 33.6083 101.163 33.0083C100.563 32.3883 100.263 31.5683 100.263 30.5483V22.1483H96.5426V19.0283H100.263V14.4083H104.043V19.0283H108.123V22.1483H104.043V29.8883C104.043 30.4883 104.323 30.7883 104.883 30.7883H107.763V33.9083H103.563Z" fill="white"/>
<path d="M116.224 34.3283C114.284 34.3283 112.694 33.9083 111.454 33.0683C110.214 32.2283 109.464 31.0283 109.204 29.4683L112.684 28.5683C112.824 29.2683 113.054 29.8183 113.374 30.2183C113.714 30.6183 114.124 30.9083 114.604 31.0883C115.104 31.2483 115.644 31.3283 116.224 31.3283C117.104 31.3283 117.754 31.1783 118.174 30.8783C118.594 30.5583 118.804 30.1683 118.804 29.7083C118.804 29.2483 118.604 28.8983 118.204 28.6583C117.804 28.3983 117.164 28.1883 116.284 28.0283L115.444 27.8783C114.404 27.6783 113.454 27.4083 112.594 27.0683C111.734 26.7083 111.044 26.2183 110.524 25.5983C110.004 24.9783 109.744 24.1783 109.744 23.1983C109.744 21.7183 110.284 20.5883 111.364 19.8083C112.444 19.0083 113.864 18.6083 115.624 18.6083C117.284 18.6083 118.664 18.9783 119.764 19.7183C120.864 20.4583 121.584 21.4283 121.924 22.6283L118.414 23.7083C118.254 22.9483 117.924 22.4083 117.424 22.0883C116.944 21.7683 116.344 21.6083 115.624 21.6083C114.904 21.6083 114.354 21.7383 113.974 21.9983C113.594 22.2383 113.404 22.5783 113.404 23.0183C113.404 23.4983 113.604 23.8583 114.004 24.0983C114.404 24.3183 114.944 24.4883 115.624 24.6083L116.464 24.7583C117.584 24.9583 118.594 25.2283 119.494 25.5683C120.414 25.8883 121.134 26.3583 121.654 26.9783C122.194 27.5783 122.464 28.3983 122.464 29.4383C122.464 30.9983 121.894 32.2083 120.754 33.0683C119.634 33.9083 118.124 34.3283 116.224 34.3283Z" fill="white"/>
<path d="M124.277 33.9083V12.9083H128.057V20.8583H128.597C128.757 20.5383 129.007 20.2183 129.347 19.8983C129.687 19.5783 130.137 19.3183 130.697 19.1183C131.277 18.8983 132.007 18.7883 132.887 18.7883C134.047 18.7883 135.057 19.0583 135.917 19.5983C136.797 20.1183 137.477 20.8483 137.957 21.7883C138.437 22.7083 138.677 23.7883 138.677 25.0283V33.9083H134.897V25.3283C134.897 24.2083 134.617 23.3683 134.057 22.8083C133.517 22.2483 132.737 21.9683 131.717 21.9683C130.557 21.9683 129.657 22.3583 129.017 23.1383C128.377 23.8983 128.057 24.9683 128.057 26.3483V33.9083H124.277Z" fill="white"/>
<path d="M141.263 33.9083V19.0283H145.043V33.9083H141.263ZM143.153 17.2883C142.473 17.2883 141.893 17.0683 141.413 16.6283C140.953 16.1883 140.723 15.6083 140.723 14.8883C140.723 14.1683 140.953 13.5883 141.413 13.1483C141.893 12.7083 142.473 12.4883 143.153 12.4883C143.853 12.4883 144.433 12.7083 144.893 13.1483C145.353 13.5883 145.583 14.1683 145.583 14.8883C145.583 15.6083 145.353 16.1883 144.893 16.6283C144.433 17.0683 143.853 17.2883 143.153 17.2883Z" fill="white"/>
<path d="M150.192 33.9083V22.1483H146.412V19.0283H150.192V16.2683C150.192 15.2483 150.492 14.4383 151.092 13.8383C151.712 13.2183 152.512 12.9083 153.492 12.9083H157.392V16.0283H154.812C154.252 16.0283 153.972 16.3283 153.972 16.9283V19.0283H157.872V22.1483H153.972V33.9083H150.192Z" fill="white"/>
<path d="M164.705 33.9083C163.725 33.9083 162.925 33.6083 162.305 33.0083C161.705 32.3883 161.405 31.5683 161.405 30.5483V22.1483H157.685V19.0283H161.405V14.4083H165.185V19.0283H169.265V22.1483H165.185V29.8883C165.185 30.4883 165.465 30.7883 166.025 30.7883H168.905V33.9083H164.705Z" fill="white"/>
</svg>
