<svg width="66" height="66" viewBox="0 0 66 66" fill="none" xmlns="http://www.w3.org/2000/svg">
<path opacity="0.1" d="M33 65.5C50.9492 65.5 65.5 50.9492 65.5 33C65.5 15.0507 50.9492 0.5 33 0.5C15.0507 0.5 0.5 15.0507 0.5 33C0.5 50.9492 15.0507 65.5 33 65.5Z" fill="white"/>
<path d="M20.5 27.1406H22.0625V28.7031H20.5V27.1406Z" fill="white"/>
<path d="M22.8438 27.1406H24.4062V28.7031H22.8438V27.1406Z" fill="white"/>
<path d="M25.1875 27.1406H26.75V28.7031H25.1875V27.1406Z" fill="white"/>
<path d="M27.5312 27.1406H29.0938V28.7031H27.5312V27.1406Z" fill="white"/>
<path d="M29.875 27.1406H31.4375V28.7031H29.875V27.1406Z" fill="white"/>
<path d="M32.2188 27.1406H33.7812V28.7031H32.2188V27.1406Z" fill="white"/>
<path d="M39.25 27.1406H40.8126V28.7031H39.25V27.1406Z" fill="white"/>
<path d="M43.9375 27.1406H45.5V28.7031H43.9375V27.1406Z" fill="white"/>
<path d="M41.5938 27.1406H43.1562V28.7031H41.5938V27.1406Z" fill="white"/>
<path d="M41.5938 29.4844H43.1562V31.0469H41.5938V29.4844Z" fill="white"/>
<path d="M41.5938 31.8281H43.1562V33.3906H41.5938V31.8281Z" fill="white"/>
<path d="M41.5938 34.1719H43.1562V35.7344H41.5938V34.1719Z" fill="white"/>
<path d="M20.5 29.4844H22.0625V31.0469H20.5V29.4844Z" fill="white"/>
<path d="M22.8438 29.4844H24.4062V31.0469H22.8438V29.4844Z" fill="white"/>
<path d="M25.1875 29.4844H26.75V31.0469H25.1875V29.4844Z" fill="white"/>
<path d="M27.5312 29.4844H29.0938V31.0469H27.5312V29.4844Z" fill="white"/>
<path d="M29.875 29.4844H31.4375V31.0469H29.875V29.4844Z" fill="white"/>
<path d="M32.2188 29.4844H33.7812V31.0469H32.2188V29.4844Z" fill="white"/>
<path d="M39.25 29.4844H40.8126V31.0469H39.25V29.4844Z" fill="white"/>
<path d="M43.9375 29.4844H45.5V31.0469H43.9375V29.4844Z" fill="white"/>
<path d="M20.5 31.8281H22.0625V33.3906H20.5V31.8281Z" fill="white"/>
<path d="M22.8438 31.8281H24.4062V33.3906H22.8438V31.8281Z" fill="white"/>
<path d="M25.1875 31.8281H26.75V33.3906H25.1875V31.8281Z" fill="white"/>
<path d="M27.5312 31.8281H29.0938V33.3906H27.5312V31.8281Z" fill="white"/>
<path d="M29.875 31.8281H31.4375V33.3906H29.875V31.8281Z" fill="white"/>
<path d="M39.25 31.8281H40.8126V33.3906H39.25V31.8281Z" fill="white"/>
<path d="M20.5 34.1719H22.0625V35.7344H20.5V34.1719Z" fill="white"/>
<path d="M22.8438 34.1719H24.4062V35.7344H22.8438V34.1719Z" fill="white"/>
<path d="M25.1875 34.1719H33.7812V35.7344H25.1875V34.1719Z" fill="white"/>
<path d="M39.25 34.1719H40.8126V35.7344H39.25V34.1719Z" fill="white"/>
<path d="M43.9375 31.8281H45.5V35.7344H43.9375V31.8281Z" fill="white"/>
<path d="M47.0626 24.7969H43.1563V22.4531C43.1563 20.299 41.4038 18.5469 39.25 18.5469C37.0963 18.5469 35.3438 20.299 35.3438 22.4531V24.7969H31.4375V22.4531C31.4375 20.299 29.6852 18.5469 27.5312 18.5469C25.3773 18.5469 23.625 20.299 23.625 22.4531V24.7969H18.9375C18.5061 24.7969 18.1562 25.1467 18.1562 25.5781V37.297C18.1562 37.7283 18.5061 38.0782 18.9375 38.0782H23.625V41.9845C23.625 42.4158 23.9748 42.7657 24.4062 42.7657C24.8377 42.7657 25.1875 42.4158 25.1875 41.9845V38.0782H29.875V40.8126C29.875 42.7512 31.4522 44.3282 33.3906 44.3282C35.3291 44.3282 36.9062 42.7512 36.9062 40.8126V38.0782H41.5938V40.422H39.25C38.8186 40.422 38.4688 40.7719 38.4688 41.2032V46.672C38.4688 48.8258 40.2213 50.5783 42.3751 50.5783C44.5288 50.5783 46.2813 48.8258 46.2813 46.672V41.2032C46.2813 40.7719 45.9315 40.422 45.5001 40.422H43.1563V38.0782H47.0626C47.494 38.0782 47.8438 37.7283 47.8438 37.297V25.5781C47.8438 25.1467 47.494 24.7969 47.0626 24.7969ZM44.7188 41.9845V46.672C44.7188 47.9645 43.6675 49.0158 42.3751 49.0158C41.0827 49.0158 40.0313 47.9645 40.0313 46.672V41.9845H41.5938V44.3282C41.5938 44.7595 41.9437 45.1095 42.3751 45.1095C42.8065 45.1095 43.1563 44.7595 43.1563 44.3282V41.9845H44.7188ZM36.9062 22.4531C36.9062 21.1607 37.9576 20.1094 39.25 20.1094C40.5425 20.1094 41.5938 21.1607 41.5938 22.4531V24.7969H36.9062V22.4531ZM25.1875 22.4531C25.1875 21.1607 26.2388 20.1094 27.5312 20.1094C28.8237 20.1094 29.875 21.1607 29.875 22.4531V24.7969H25.1875V22.4531ZM19.7187 26.3594H35.3438V31.8281H32.2188V33.3906H35.3438V34.1719H34.5625V35.7344H35.3438V36.5156C33.4795 36.5156 21.3701 36.5156 19.7187 36.5156V26.3594ZM35.3438 40.8126C35.3438 41.8895 34.4675 42.7657 33.3906 42.7657C32.3138 42.7657 31.4375 41.8895 31.4375 40.8126V38.0782H35.3438V40.8126ZM46.2813 36.5157H36.9062V35.7345H38.4688V34.172H36.9062V26.3594H46.2813V36.5157Z" fill="white"/>
<path d="M18.1562 43.5469C16.8638 43.5469 15.8125 44.5982 15.8125 45.8906C15.8125 47.183 16.8638 48.2345 18.1562 48.2345C19.4487 48.2345 20.5 47.183 20.5 45.8906C20.5 44.5982 19.4487 43.5469 18.1562 43.5469ZM18.1562 46.6719C17.7254 46.6719 17.375 46.3214 17.375 45.8906C17.375 45.4598 17.7254 45.1094 18.1562 45.1094C18.5871 45.1094 18.9375 45.4598 18.9375 45.8906C18.9375 46.3214 18.5871 46.6719 18.1562 46.6719Z" fill="white"/>
<path d="M18.5469 20.1094C19.6237 20.1094 20.5 19.2331 20.5 18.1562C20.5 17.0794 19.6237 16.2031 18.5469 16.2031C17.47 16.2031 16.5938 17.0794 16.5938 18.1562C16.5938 19.2331 17.47 20.1094 18.5469 20.1094ZM18.5469 17.7656C18.7622 17.7656 18.9375 17.9407 18.9375 18.1562C18.9375 18.3718 18.7622 18.5469 18.5469 18.5469C18.3316 18.5469 18.1562 18.3718 18.1562 18.1562C18.1562 17.9407 18.3316 17.7656 18.5469 17.7656Z" fill="white"/>
<path d="M47.4531 20.8906C48.9607 20.8906 50.1875 19.6638 50.1875 18.1562C50.1875 16.6483 48.9607 15.4219 47.4531 15.4219C45.9455 15.4219 44.7188 16.6483 44.7188 18.1562C44.7188 19.6638 45.9455 20.8906 47.4531 20.8906ZM47.4531 16.9844C48.0993 16.9844 48.625 17.5101 48.625 18.1562C48.625 18.8025 48.0993 19.3281 47.4531 19.3281C46.807 19.3281 46.2812 18.8024 46.2812 18.1562C46.2812 17.51 46.807 16.9844 47.4531 16.9844Z" fill="white"/>
<path d="M31.4375 16.9844C31.869 16.9844 32.2188 16.6346 32.2188 16.2031C32.2188 15.7717 31.869 15.4219 31.4375 15.4219C31.006 15.4219 30.6562 15.7717 30.6562 16.2031C30.6562 16.6346 31.006 16.9844 31.4375 16.9844Z" fill="white"/>
<path d="M42.375 17.7656C42.8065 17.7656 43.1562 17.4158 43.1562 16.9844C43.1562 16.5529 42.8065 16.2031 42.375 16.2031C41.9435 16.2031 41.5938 16.5529 41.5938 16.9844C41.5938 17.4158 41.9435 17.7656 42.375 17.7656Z" fill="white"/>
<path d="M22.0625 22.4531C22.494 22.4531 22.8438 22.1033 22.8438 21.6719C22.8438 21.2404 22.494 20.8906 22.0625 20.8906C21.631 20.8906 21.2812 21.2404 21.2812 21.6719C21.2812 22.1033 21.631 22.4531 22.0625 22.4531Z" fill="white"/>
<path d="M21.2812 41.9844C21.7127 41.9844 22.0625 41.6346 22.0625 41.2031C22.0625 40.7717 21.7127 40.4219 21.2812 40.4219C20.8498 40.4219 20.5 40.7717 20.5 41.2031C20.5 41.6346 20.8498 41.9844 21.2812 41.9844Z" fill="white"/>
<path d="M28.3125 45.8906C28.744 45.8906 29.0938 45.5408 29.0938 45.1094C29.0938 44.6779 28.744 44.3281 28.3125 44.3281C27.881 44.3281 27.5312 44.6779 27.5312 45.1094C27.5312 45.5408 27.881 45.8906 28.3125 45.8906Z" fill="white"/>
<path d="M49.4062 41.9844C49.8377 41.9844 50.1875 41.6346 50.1875 41.2031C50.1875 40.7717 49.8377 40.4219 49.4062 40.4219C48.9748 40.4219 48.625 40.7717 48.625 41.2031C48.625 41.6346 48.9748 41.9844 49.4062 41.9844Z" fill="white"/>
</svg>
